<mxfile host="app.diagrams.net" modified="2024-04-11T16:59:12.107Z" agent="Mozilla/5.0 (Macintosh; Intel Mac OS X 10_15_7) AppleWebKit/605.1.15 (KHTML, like Gecko) Version/17.0 Safari/605.1.15" etag="lAS64SivJhJA2_iGhRLw" version="24.2.3" type="github">
  <diagram name="Page-1" id="kqiPId-VTtrbnOS3DSNV">
    <mxGraphModel dx="1560" dy="578" grid="0" gridSize="10" guides="1" tooltips="1" connect="1" arrows="1" fold="1" page="0" pageScale="1" pageWidth="850" pageHeight="1100" math="0" shadow="0">
      <root>
        <mxCell id="0" />
        <mxCell id="1" parent="0" />
        <mxCell id="k5m__eWOqbacTuO0Tf0Q-2" value="" style="ellipse;whiteSpace=wrap;html=1;" vertex="1" parent="1">
          <mxGeometry x="165" y="165" width="80" height="80" as="geometry" />
        </mxCell>
        <mxCell id="k5m__eWOqbacTuO0Tf0Q-3" value="" style="rounded=0;whiteSpace=wrap;html=1;" vertex="1" parent="1">
          <mxGeometry x="-12" y="28" width="434" height="80" as="geometry" />
        </mxCell>
        <mxCell id="k5m__eWOqbacTuO0Tf0Q-4" value="Asset" style="text;strokeColor=none;fillColor=none;html=1;align=center;verticalAlign=middle;whiteSpace=wrap;rounded=0;fontSize=16;" vertex="1" parent="1">
          <mxGeometry x="166.5" y="190" width="77" height="30" as="geometry" />
        </mxCell>
      </root>
    </mxGraphModel>
  </diagram>
</mxfile>
